<svg xmlns="http://www.w3.org/2000/svg" viewBox="0 0 792.57 247.93"><defs><style>.cls-1{fill:#e96876;}.cls-2{fill:#f26f63;}</style></defs><g id="Layer_2" data-name="Layer 2"><g id="Logo"><g id="Logo-2" data-name="Logo"><g id="Text"><path class="cls-1" d="M12.89,240.09C5.83,233.89,4,225.83,4,218.84a27.08,27.08,0,0,1,8.43-19.73c5.18-4.75,12-7.63,22.75-7.63a71.48,71.48,0,0,1,10.44.72c2.74.36,5.26,1,7.42,1.23.79.07.86.43.86.86,0,.58-.22,1.44-.36,4s-.07,6.34-.22,7.78c-.07,1.08-.21,1.72-.86,1.72s-.72-.64-.72-1.65a10.31,10.31,0,0,0-2.81-6.63C46.52,197,40.9,195,34.27,195c-6.26,0-10.36,1.58-13.53,4.46-5.26,4.83-6.63,11.67-6.63,18.65,0,17.14,13,25.64,22.69,25.64,6.4,0,10.29-.72,13.17-4A12,12,0,0,0,52.42,235c.22-1.15.36-1.44.94-1.44s.64.51.64,1.08a68.25,68.25,0,0,1-1.58,9.58,2.56,2.56,0,0,1-1.87,2.09c-2.88,1.15-8.35,1.65-13,1.65C27.72,247.93,19.44,245.77,12.89,240.09Z" transform="translate(-3.96)"/><path class="cls-1" d="M74.66,231.73c-.28,0-.43.15-.57.51l-3.17,7.85a13.06,13.06,0,0,0-.94,3.74c0,1.8,2.24,1.87,3.6,1.87.87,0,1.08.29,1.08.58,0,.5-.5.65-1.15.65-2.23,0-4.82-.22-7.05-.22-.72,0-4.33.22-7.64.22-.79,0-1.15-.15-1.15-.65s.36-.65.86-.65c4.54-.43,5.55-1.3,7.21-5.47L81,204.08c1.3-3.38,2-4.75,2.81-4.75.57,0,.94.65,1.65,2.23,1.23,3.53,11.89,28.08,15.92,37.3,2.3,5.4,4.1,6.34,5.62,6.63a13.41,13.41,0,0,0,2.37.14c.79,0,1.08.29,1.08.65s-.29.65-1.22.65c-3,0-10.59.14-15.12-.15-.65-.07-1.08-.21-1.08-.57s.28-.44.64-.58c.65-.22,1.16-.43.72-1.3L89.5,232.16a.55.55,0,0,0-.58-.43Zm12.89-3.6c.36,0,.36-.14.29-.36l-5.62-14.69c-.21-.57-.43-.72-.72,0l-5.68,14.69c-.08.22,0,.36.28.36Z" transform="translate(-3.96)"/><path class="cls-1" d="M118.37,218.34c0-9.36,0-10.73-.15-12.67-.14-2.16-.72-3.1-2.66-3.46-.79-.14-1.66-.22-2.45-.29s-1.08-.21-1.08-.65.43-.64,1.37-.64c3.24,0,7.63.21,8.85.21,2,0,7.06-.21,9.22-.21,4.32,0,8.57.43,11.81,2.52a10.53,10.53,0,0,1,4.68,8.57c0,4.6-2.16,8.71-8.42,13.39,5.32,6.62,9.79,12.31,13.53,16.13,3.46,3.67,5.84,4,7,4.25.65.07,1.15.07,1.65.14s.87.29.87.58c0,.5-.43.72-1.23.72h-6c-4.18,0-6-.44-7.78-1.37-2.52-1.37-4.9-4.18-8.21-8.72-2.59-3.6-5.26-7.41-6.19-8.49a1.17,1.17,0,0,0-1-.36l-5.11-.15a.46.46,0,0,0-.51.51v1.29c0,5.55,0,9.8.29,12.32.15,1.8.58,3.17,2.52,3.38a20.71,20.71,0,0,0,3,.29c.57,0,.79.29.79.58s-.43.72-1.23.72c-3.81,0-8.85-.22-9.79-.22s-5.47.22-8,.22c-.79,0-1.23-.22-1.23-.65s.29-.65,1-.65a15.59,15.59,0,0,0,2.31-.22c1.22-.28,1.65-1.58,1.8-3.45a118.08,118.08,0,0,0,.36-12.82ZM126.5,223c0,.58.15.86.58,1a14.57,14.57,0,0,0,4.82.72c2.31,0,3.32-.29,4.4-1.08,1.8-1.3,3.52-4,3.52-8.86,0-8.71-6-11-9.57-11a11.51,11.51,0,0,0-3.24.29c-.36.15-.51.36-.51.87Z" transform="translate(-3.96)"/><path class="cls-1" d="M173.16,231a12.38,12.38,0,0,0-1.51-6.41c-.8-1.58-8.86-14.4-11.09-17.64a12.29,12.29,0,0,0-4.54-4.32,7,7,0,0,0-2.3-.72c-.51,0-1.08-.21-1.08-.65s.29-.64,1.08-.64c1.44,0,6.33.21,8.49.21,1.23,0,4.11-.21,7.13-.21.65,0,1,.21,1,.57s-.22.58-1.15.79-1.3.51-1.3,1a4.6,4.6,0,0,0,.79,2c.87,1.87,9.51,16.34,10.52,18.07,1.29-2.52,8.42-14.54,9.36-16.56a8,8,0,0,0,.93-3.24c0-.58-.28-1.08-1.51-1.37-.57-.14-1.15-.36-1.15-.72s.29-.57,1.15-.57c2.23,0,4.25.21,6.19.21,1.3,0,5.62-.21,6.85-.21.72,0,1.22.21,1.22.57s-.5.72-1.3.72a10.42,10.42,0,0,0-2.73.65,8.82,8.82,0,0,0-3.39,2.88c-2.09,2.45-11,17-12.09,19.59a14.88,14.88,0,0,0-.94,6V236c0,1,0,3.46.14,6,.15,1.73.58,3.17,2.6,3.38a22.5,22.5,0,0,0,3.16.29c.72,0,1.08.36,1.08.65s-.36.65-1.15.65c-4.1,0-8.49-.22-10.29-.22-1.59,0-5.84.22-8.21.22-.94,0-1.44-.15-1.44-.65,0-.29.36-.58,1-.65a8.79,8.79,0,0,0,2.09-.29c1.44-.21,2.09-1.51,2.16-3.31.22-2.59.22-5,.22-6.05Z" transform="translate(-3.96)"/><path class="cls-1" d="M231.62,229.14c0,5.47,0,10.3.29,13,.22,1.66.58,3,2.52,3.24.86.15,2.16.22,3.1.29.72,0,1.08.29,1.08.58s-.44.72-1.3.72c-4.18,0-8.57-.22-10.15-.22s-5.83.22-8.28.22c-.87,0-1.3-.29-1.3-.72s.29-.58,1.08-.58a14.16,14.16,0,0,0,2.16-.22c1.37-.28,1.73-1.58,2-3.38.28-2.59.28-7.2.28-12.89V204.23c-2.37,0-7.13,0-10,.21-3.67.29-4.75.58-5.61,2.16a16,16,0,0,0-.87,2c-.14.43-.36.72-.72.72s-.57-.36-.57-1.08c.07-1.3,1.22-6.41,1.37-7.2s.36-1.3.72-1.3a15.76,15.76,0,0,0,2.66.72,57.57,57.57,0,0,0,6.48.36H242a25.25,25.25,0,0,0,4.32-.36c.94-.14,1.44-.29,1.8-.29s.51.36.51,1.44c0,1.23-.29,5.69-.29,7.28-.07.64-.22,1-.65,1s-.58-.36-.65-1.22c0-.22-.07-.5-.07-.79-.14-1.66-1.66-3.31-7-3.39-1.72-.14-4.39-.21-8.35-.28Z" transform="translate(-3.96)"/><path class="cls-1" d="M253.29,223.81c0-10.8,7.2-24.05,26.14-24.05,15.84,0,25.49,9.72,25.49,22.9,0,14-9.86,25.06-26.07,25.06C260.78,247.72,253.29,234.68,253.29,223.81ZM295.56,225c0-13-7.49-22-18-22-7.06,0-15,3.6-15,18.72,0,12.53,6.84,22.61,18.79,22.61C285.77,244.33,295.56,242.53,295.56,225Z" transform="translate(-3.96)"/><path class="cls-1" d="M313.34,206.82c-.86-2.31-1.51-3.75-2.52-4.32a6.67,6.67,0,0,0-2.45-.58c-.65,0-1-.21-1-.65s.51-.64,1.44-.64c3.39,0,7,.21,7.64.21s3.88-.21,7.49-.21c.86,0,1.29.28,1.29.64s-.43.65-1.08.65a7,7,0,0,0-1.58.29c-.58.14-.79.65-.79,1.3A38.67,38.67,0,0,0,323.2,209c1,3.67,6.7,21.38,8.07,25.34l12.17-31.25c.65-1.72,1.15-2.23,1.65-2.23.65,0,1,.94,1.88,2.88L360.14,234c1.37-4.54,6.12-19.59,8.21-26.57a12.31,12.31,0,0,0,.72-3.6c0-1.08-.57-2-3.17-2-.57,0-1.08-.29-1.08-.65s.44-.64,1.44-.64c3.46,0,6.27.21,6.84.21s3.46-.21,5.62-.21c.72,0,1.15.28,1.15.64s-.36.65-.86.65a8.28,8.28,0,0,0-2.23.36c-1.59.51-2.31,2.59-3.68,6.27-3,7.63-9.43,26.57-12.81,36.14-.79,2.16-1.15,3-2,3s-1.08-.79-2.08-2.95l-13.18-30c-1.51,3.89-9.43,23.91-12.17,29.74-1.15,2.45-1.58,3.24-2.38,3.24s-1-.72-1.65-2.52Z" transform="translate(-3.96)"/><path class="cls-1" d="M386.13,201.85c0-1.37.22-2.23.94-2.23s1.22.72,2.3,1.8,9.58,9.72,19.88,19.37c4.68,4.46,12.74,12.67,13.89,13.68l-.57-26.64c-.07-3.68-.58-4.9-2.31-5.55a16.74,16.74,0,0,0-3.24-.36c-.79,0-1.08-.36-1.08-.72s.72-.57,1.59-.57c3.17,0,6.41.21,8,.21.79,0,3.38-.21,6.41-.21.79,0,1.37.14,1.37.64s-.29.65-1.08.65a13.61,13.61,0,0,0-1.8.22c-1.88.5-2.45,1.73-2.52,5.18-.29,9.22-.44,25.28-.65,38.09,0,1.66-.36,2.24-.94,2.24-.79,0-1.73-.8-3.09-2-4-3.67-11.74-11.09-17.72-16.85-6.33-5.9-13.39-13.39-15.12-15.19l.65,25c.14,4.68.86,6.2,2.16,6.63a13.5,13.5,0,0,0,3.38.43c.65,0,1.08.22,1.08.58s-.57.72-1.44.72c-3.74,0-6.26-.22-7.92-.22-.79,0-4.1.22-7.2.22-.79,0-1.37-.08-1.37-.65,0-.36.36-.65,1-.65a18,18,0,0,0,2.74-.29c1.8-.5,2.09-2.09,2.16-7.41C385.77,225,386.13,209.91,386.13,201.85Z" transform="translate(-3.96)"/><path class="cls-2" d="M524.88,237.64c.65,4.53,1.37,6.62,3.53,7.27a14.35,14.35,0,0,0,4.46.72c.65,0,1.16.07,1.16.5,0,.58-.87.8-1.88.8-1.8,0-11.73-.22-14.61-.44-1.66-.14-2.09-.36-2.09-.79s.29-.57.79-.79.65-1.08.36-3.1l-4.39-32.11-15.92,33.12c-1.65,3.39-2,4-2.66,4s-1.37-1.44-2.52-3.6c-1.73-3.31-7.42-14.33-8.28-16.34-.65-1.51-5.18-11.09-7.71-16.49l-3.81,29.16a27.35,27.35,0,0,0-.22,3.39c0,1.36.94,2,2.16,2.3a13.86,13.86,0,0,0,3,.36c.57,0,1.08.14,1.08.5,0,.65-.65.8-1.73.8-3,0-6.27-.22-7.56-.22s-4.83.22-7.13.22c-.72,0-1.3-.15-1.3-.8,0-.36.43-.5,1.16-.5a9.12,9.12,0,0,0,2.16-.22c2-.43,2.59-3.24,3-5.68L473,192.78c.21-1.23.64-1.87,1.22-1.87s1,.35,1.94,2.23l19.66,40.61,19.59-41.12c.57-1.15.93-1.72,1.58-1.72s1.08.72,1.3,2.23Z" transform="translate(-3.96)"/><path class="cls-2" d="M548.92,231.73c-.28,0-.43.15-.57.51l-3.17,7.85a13.06,13.06,0,0,0-.94,3.74c0,1.8,2.24,1.87,3.6,1.87.87,0,1.08.29,1.08.58,0,.5-.5.65-1.15.65-2.23,0-4.82-.22-7-.22-.73,0-4.32.22-7.64.22-.79,0-1.15-.15-1.15-.65s.36-.65.86-.65c4.54-.43,5.55-1.3,7.2-5.47l15.27-36.08c1.3-3.38,2-4.75,2.81-4.75.58,0,.93.65,1.66,2.23,1.22,3.53,11.88,28.08,15.91,37.3,2.3,5.4,4.1,6.34,5.61,6.63a13.58,13.58,0,0,0,2.38.14c.79,0,1.08.29,1.08.65s-.29.65-1.22.65c-3,0-10.59.14-15.12-.15-.65-.07-1.08-.21-1.08-.57s.28-.44.64-.58c.65-.22,1.16-.43.72-1.3l-4.89-12.17a.55.55,0,0,0-.58-.43Zm12.89-3.6c.36,0,.36-.14.29-.36l-5.62-14.69c-.21-.57-.43-.72-.72,0l-5.68,14.69c-.08.22,0,.36.28.36Z" transform="translate(-3.96)"/><path class="cls-2" d="M589.75,246.13c-1-.43-1.23-.86-1.23-2.08,0-3.68.22-7.28.29-8.36s.29-1.58.79-1.58.65.5.72,1a11.11,11.11,0,0,0,.43,2.88c1.3,4.68,5.26,6.62,9.36,6.62,5.77,0,8.36-3.53,8.36-6.69,0-2.88-.87-5.62-6.2-9.51l-3-2.3c-7.13-5.4-9.43-9.51-9.43-14.55,0-6.77,5.83-11.81,14.83-11.81a34.37,34.37,0,0,1,6.41.65c1,.14,1.87.36,2.59.43s.72.36.72.79c0,1-.29,2.74-.29,7.64,0,1.36-.21,1.87-.72,1.87s-.64-.43-.72-1.23A9.16,9.16,0,0,0,611.2,206c-1.08-1.66-3.09-3.24-7.2-3.24-4.75,0-7.49,2.59-7.49,6.12,0,2.66,1.3,5,6.48,8.57l2,1.36c8.07,5.48,10.66,9.72,10.66,15.56a12.54,12.54,0,0,1-6.19,10.87,19.75,19.75,0,0,1-10.23,2.45A23.28,23.28,0,0,1,589.75,246.13Z" transform="translate(-3.96)"/><path class="cls-2" d="M625,246.13c-1-.43-1.23-.86-1.23-2.08,0-3.68.22-7.28.29-8.36s.29-1.58.79-1.58.65.5.72,1A11.11,11.11,0,0,0,626,238c1.3,4.68,5.26,6.62,9.37,6.62,5.76,0,8.35-3.53,8.35-6.69,0-2.88-.87-5.62-6.19-9.51l-3-2.3c-7.13-5.4-9.43-9.51-9.43-14.55,0-6.77,5.83-11.81,14.83-11.81a34.37,34.37,0,0,1,6.41.65c1,.14,1.87.36,2.59.43s.72.36.72.79c0,1-.29,2.74-.29,7.64,0,1.36-.21,1.87-.72,1.87s-.64-.43-.72-1.23a9.16,9.16,0,0,0-1.44-3.88c-1.08-1.66-3.09-3.24-7.2-3.24-4.75,0-7.49,2.59-7.49,6.12,0,2.66,1.3,5,6.48,8.57l2,1.36c8.07,5.48,10.66,9.72,10.66,15.56a12.54,12.54,0,0,1-6.19,10.87,19.73,19.73,0,0,1-10.23,2.45A23.28,23.28,0,0,1,625,246.13Z" transform="translate(-3.96)"/><path class="cls-2" d="M671,231.73c-.29,0-.43.15-.57.51l-3.17,7.85a13.06,13.06,0,0,0-.94,3.74c0,1.8,2.23,1.87,3.6,1.87.87,0,1.08.29,1.08.58,0,.5-.5.65-1.15.65-2.23,0-4.82-.22-7.06-.22-.72,0-4.32.22-7.63.22-.79,0-1.15-.15-1.15-.65s.36-.65.86-.65c4.54-.43,5.55-1.3,7.2-5.47l15.27-36.08c1.29-3.38,2-4.75,2.81-4.75.57,0,.93.65,1.65,2.23,1.23,3.53,11.88,28.08,15.92,37.3,2.3,5.4,4.1,6.34,5.61,6.63a13.58,13.58,0,0,0,2.38.14c.79,0,1.08.29,1.08.65s-.29.65-1.23.65c-3,0-10.58.14-15.12-.15-.64-.07-1.08-.21-1.08-.57s.29-.44.65-.58c.65-.22,1.15-.43.72-1.3l-4.89-12.17a.56.56,0,0,0-.58-.43Zm12.89-3.6c.36,0,.36-.14.29-.36l-5.62-14.69c-.21-.57-.43-.72-.72,0l-5.69,14.69c-.07.22,0,.36.29.36Z" transform="translate(-3.96)"/><path class="cls-2" d="M753.33,242.46c0,2-.14,2.16-.93,2.59-4,1.95-10.23,2.67-15.27,2.67-16,0-29.52-7.2-29.52-24a22.73,22.73,0,0,1,11.09-20c6.19-3.53,12.09-4,17.28-4a66.09,66.09,0,0,1,11.09,1c1.44.22,3.67.58,5.18.65.72.07.79.43.79.86a76.42,76.42,0,0,0-.5,10.3c0,1-.22,1.3-.72,1.3s-.58-.37-.65-.87a8.16,8.16,0,0,0-1.94-4.68c-1.73-2.38-6.84-5.26-14.26-5.26-3.74,0-8.28.44-12.38,4-3.39,2.88-5.48,7.28-5.48,14.55,0,12.67,8.07,22.75,21.46,22.75,1.51,0,3.6,0,5-.72.94-.36,1.15-1.15,1.15-2.16v-5.18c0-3,0-5.11-.07-7.06-.07-2.37-.65-3.53-2.81-3.81-.58-.08-1.51-.15-2.45-.22-.57,0-1-.29-1-.65s.44-.57,1.37-.57c3.46,0,7.56.14,9.51.14s5.47-.14,7.85-.14c.79,0,1.29.14,1.29.57s-.36.58-.86.65l-1.73.14c-1.8.22-2.3,1.37-2.38,3.46-.07,1.94-.07,4.32-.07,7.42Z" transform="translate(-3.96)"/><path class="cls-2" d="M770.18,218.34c0-9.36,0-11-.15-13s-.65-2.81-2.59-3.24a19.15,19.15,0,0,0-2.45-.22c-.72,0-1.08-.22-1.08-.65s.43-.57,1.44-.57c3,0,5.91.21,9.07.21,2,0,15.13,0,16.28-.07s2.3-.29,2.88-.36a7.65,7.65,0,0,1,1-.29c.36,0,.43.29.43.58a25,25,0,0,0-.58,3.89c-.07,1.15-.14,2.37-.29,4.24,0,.36-.14,1-.72,1-.43,0-.57-.36-.64-1.15a5.12,5.12,0,0,0-.36-2c-.44-1.15-1-1.8-4.11-2.16-1.22-.14-7.7-.28-9.14-.28-.29,0-.44.21-.44.64v14.91c0,.43.08.65.44.65,1.51,0,8.42,0,10-.07,1.8-.15,2.73-.36,3.31-1,.43-.58.72-.79,1-.79s.43.14.43.5-.29,1.8-.51,4.75c0,1.23-.21,3.82-.21,4.32s-.07,1.15-.65,1.15-.65-.64-.65-1c-.07-.58-.07-.94-.21-1.66-.36-1.37-1.08-2.3-3.61-2.52-1.29-.14-7.34-.22-8.92-.22-.36,0-.44.29-.44.65v4.68c0,2.09-.07,7.13,0,9,.15,4.25,1.08,5.19,7.71,5.19,1.65,0,4.32,0,5.9-.72s2.38-2,2.88-4.61c.15-.65.29-1,.8-1s.5.58.5,1.23a44,44,0,0,1-.86,7.2c-.44,1.58-1,1.58-3.39,1.58-6.26,0-11.66-.36-18.07-.36-2.59,0-5.19.22-8.21.22-.86,0-1.3-.22-1.3-.65s.22-.65,1.08-.65a15.52,15.52,0,0,0,2.24-.22c1.29-.28,1.65-1.65,1.87-3.81.29-2.52.29-7.2.29-12.46Z" transform="translate(-3.96)"/></g><g id="Icon"><path class="cls-2" d="M394.59.34C352,4.07,318.22,39.07,315.81,81.71A86.19,86.19,0,0,0,329.12,133l0,0,.1.1a86.65,86.65,0,0,0,79.84,40c39.6-3,76.13-38.94,79.67-78.49A86.8,86.8,0,0,0,394.59.34Zm-56.48,129c6.42-5.65,16.73-13.62,26.73-16.71a8.32,8.32,0,0,1,7,1,34.42,34.42,0,0,0,3.57,2.1,2.89,2.89,0,0,1-.68,5.39c-2.68.6-4.77,1.18-6.12,1.59a1.76,1.76,0,0,0,1,3.38c1.61-.47,3.23-.88,4.86-1.26q3.8-.87,7.65-1.45c3.26-.5,6.55-.85,9.85-1a100.27,100.27,0,0,1,11.5,0,90.57,90.57,0,0,1,12.6,1.57,81,81,0,0,1,13.13,3.77,3.4,3.4,0,0,0,1.7.22,1.59,1.59,0,0,0,.37-.06c.74-.29,1-1.47,1.21-2.13.29-.9.58-1.79.89-2.67q.94-2.77,2-5.49a89,89,0,0,1,4.81-10.34,29.41,29.41,0,0,1,4.67-6.65.7.7,0,0,1,1.15.74L433.82,138a12.74,12.74,0,0,1-9.2,8.36c-7.53,1.76-22.17,2.56-50.11-2.4l.52-1.33a1.76,1.76,0,0,0-3.28-1.29l-5.58,14.25a4.65,4.65,0,0,1-6.71,2.32,83.74,83.74,0,0,1-22.09-19.37A6.66,6.66,0,0,1,338.11,129.34Zm120.93-29a20.18,20.18,0,0,1,5.7-3.12,1,1,0,0,1,1.2,1.53L453,120.26l.07-.17Zm-11.93,27.38a14.67,14.67,0,0,1-5,7.36l0,0-2.27,1.76a1,1,0,0,1-1.5-1.06L450.92,98c1.38-1.23,3.78-2.88,5.45-2.92l.42.53Zm6-35.18a18.86,18.86,0,0,0-3.94,2.63c-6.24-.33-11.88,9.71-15.62,18.56-6.86,3-15.17,4-24.74,3a50.49,50.49,0,0,1-.46-7.1v-.18c.06-7.09,1.55-17.36,8.42-25.8,8.14-10,21.85-15.23,40.77-15.52A68.82,68.82,0,0,1,453.11,92.51Zm-35.42,28.12-.38-.08h.39A.28.28,0,0,0,417.69,120.63Zm13.71-2.38a.3.3,0,0,0,0-.08l.08,0Zm-17.73-36.8A38,38,0,0,0,410,86.81a34.05,34.05,0,0,1,1-4.72c3.36-11.92,13.3-22,29.75-30.22a73.32,73.32,0,0,1,4.86,13.6C431.43,67.45,420.7,72.79,413.67,81.45Zm-8.33.37c-2-7.51-6.69-15.57-16-23.15,3.16-13.76,13.13-24.74,16.6-28.22,9.35,9.59,15.11,19.16,17.21,28.47-9.09,7.51-13.69,15.47-15.69,22.9A1.1,1.1,0,0,1,405.34,81.82Zm-2.46,5.84a38,38,0,0,0-4.1-6.21c-7-8.59-17.58-13.91-31.59-15.93a72.82,72.82,0,0,1,4.87-13.64C391,61.29,401.32,73.31,402.88,87.66Zm-6.94-4c6.87,8.44,8.36,18.71,8.41,25.8v.18a49.33,49.33,0,0,1-.45,7.1c-14.69,1.5-26.32-1.67-34.58-9.43-13.17-12.39-14.16-33.17-14.15-39.17C374.08,68.41,387.8,73.63,395.94,83.64Zm65.82,64.45c-32.78,24.62-66.85,26.13-93.53,14.07a1,1,0,0,1-.51-1.26l5.14-13.1a1.14,1.14,0,0,1,1.26-.71c15.62,2.77,27.29,3.78,36,3.78,13.92,0,20.27-2.57,23.12-4.61l.22-.19c4.66-4.22,9.91-7.68,14.68-11.78a6.8,6.8,0,0,0,1.19-1.42l3.51-5.85,3.31-5.52,4.37-7.27,4.48-7.47,3.66-6.11c.63-1.05,1.34-2.08,1.91-3.17s.84-2.5-.07-3.3A5.52,5.52,0,0,0,467.62,93a11.37,11.37,0,0,0-6.14,1.33c-.29.14-.59.28-.88.44a7.62,7.62,0,0,0-.27-1.73l-.06-.09a4.87,4.87,0,0,0-3.4-1.75,71.68,71.68,0,0,0,3.8-25.33l-.09-1.66h-1.66c-3.42,0-6.67.17-9.78.47a72,72,0,0,0-6.06-16.37l-.8-1.45-1.5.71a91,91,0,0,0-14.56,8.59c-2.63-9.85-9-19.87-19-29.8L406,25.2l-1.23,1.1c-.6.54-14,12.7-18.5,29.66A91.46,91.46,0,0,0,372,47.58l-1.49-.71-.8,1.45a71.87,71.87,0,0,0-6.07,16.4c-3.22-.32-6.59-.5-10.14-.5h-1.66l-.1,1.66c-.06,1.08-1.31,25.67,13.18,41.51a.77.77,0,0,1-.36,1.27c-13.08,3.73-26.29,15.14-32.25,20.78a.76.76,0,0,1-1.17-.16c-16.74-27.64-17.9-65.73,9.15-102.07a14.79,14.79,0,0,1,3.14-3.13c87.47-64.73,185.8,33.5,121.3,121A14.8,14.8,0,0,1,461.76,148.09Z" transform="translate(-3.96)"/><path class="cls-2" d="M402.37,173.39a86.7,86.7,0,1,1,86.7-86.69A86.79,86.79,0,0,1,402.37,173.39Zm0-169.87A83.18,83.18,0,1,0,485.55,86.7,83.27,83.27,0,0,0,402.37,3.52Z" transform="translate(-3.96)"/></g></g></g></g></svg>